<?xml version="1.0" standalone="no"?>
<!DOCTYPE svg PUBLIC "-//W3C//DTD SVG 20010904//EN"
 "http://www.w3.org/TR/2001/REC-SVG-20010904/DTD/svg10.dtd">
<svg version="1.0" xmlns="http://www.w3.org/2000/svg"
 width="300.000000pt" height="300.000000pt" viewBox="0 0 300.000000 300.000000"
 preserveAspectRatio="xMidYMid meet">
<metadata>
Created by potrace 1.14, written by Peter Selinger 2001-2017
</metadata>
<g transform="translate(0.000000,300.000000) scale(0.100000,-0.100000)"
fill="#000000" stroke="none">
<path d="M0 1500 l0 -1500 1500 0 1500 0 0 1500 0 1500 -1500 0 -1500 0 0
-1500z m2490 260 l0 -1130 -120 0 -119 0 -3 -122 -3 -123 -122 -3 -123 -3 0
-119 0 -120 -805 0 -805 0 0 1130 0 1129 123 3 122 3 3 123 3 122 119 0 120 0
0 120 0 120 805 0 805 0 0 -1130z"/>
<path d="M1000 2710 l0 -60 623 -2 622 -3 3 -947 2 -948 60 0 60 0 0 1010 0
1010 -685 0 -685 0 0 -60z"/>
<path d="M762 2468 l3 -63 618 -3 617 -2 0 -951 0 -950 63 3 62 3 0 1010 0
1010 -683 3 -683 2 3 -62z"/>
<path d="M520 1270 l0 -1010 680 0 680 0 0 1010 0 1010 -680 0 -680 0 0 -1010z
m1273 720 l0 -55 -607 -3 -606 -2 0 60 0 60 606 -2 607 -3 0 -55z m0 -197 l0
-58 -607 -3 -606 -2 0 62 0 63 606 -2 607 -3 0 -57z m0 -193 l0 -55 -607 -3
-606 -2 0 60 0 60 606 -2 607 -3 0 -55z"/>
</g>
</svg>
